<svg xmlns="http://www.w3.org/2000/svg" width="14.88" height="14.875"><defs><filter id="filter" x="1344.34" y="36.219" width="14.88" height="14.875" filterUnits="userSpaceOnUse"><feFlood result="flood" flood-color="#7eb252"/><feComposite result="composite" operator="in" in2="SourceGraphic"/><feBlend result="blend" in2="SourceGraphic"/></filter></defs><path id="телефон" d="M1346.83 36.221a2.239 2.239 0 011.86 1.022l1.59 1.588a1.8 1.8 0 01.6.913 1.039 1.039 0 01.03.475 2.043 2.043 0 01-.71 1.041c-.17.183-.35.365-.53.547a2.138 2.138 0 00-.51.548 1.76 1.76 0 01.18.31c.14.2.3.389.44.584.16.215.39.391.55.6a8.3 8.3 0 001.53 1.5c.08.058.14.159.22.219.22.164.43.32.66.475a.928.928 0 00.4.219 4.955 4.955 0 01.64-.638 3.166 3.166 0 011.44-1.113 1.151 1.151 0 01.7.109 5.857 5.857 0 011.46 1.3c.38.384.76.767 1.15 1.151a2.348 2.348 0 01.53.584 4 4 0 01.14.492 1.58 1.58 0 01-.03.657 3.781 3.781 0 01-1.01 1.15 3.365 3.365 0 01-.88.767 5.006 5.006 0 01-.98.292 4.419 4.419 0 01-1.83-.037l-.31-.037a8.088 8.088 0 01-1-.292 15.217 15.217 0 01-1.39-.657c-.25-.138-.5-.335-.75-.474a14.14 14.14 0 01-5.25-5.348c-.13-.23-.3-.466-.44-.693a7.306 7.306 0 01-.44-.968 5.685 5.685 0 01-.14-4.454 3.21 3.21 0 01.71-.767l.78-.8a1.768 1.768 0 01.31-.183 1.229 1.229 0 00.28-.082zm.11.8c-.07.049-.16.063-.22.11l-.84.858a1.809 1.809 0 00-.44.474c-.71 1.6.02 3.675.69 4.782a29.225 29.225 0 001.65 2.446c.09.123.23.224.32.347a3.176 3.176 0 00.57.6c.07.051.1.15.16.2.27.215.5.489.77.694.32.24.62.5.95.73a19.907 19.907 0 001.95 1.168 5.46 5.46 0 003.78.73 3.8 3.8 0 00.59-.146 2.138 2.138 0 00.58-.493c.29-.286.58-.572.88-.858a.611.611 0 01.07-.128 1.265 1.265 0 00-.66-1.113c-.11-.115-.21-.249-.33-.365-.36-.359-.73-.7-1.09-1.059a2.262 2.262 0 00-.79-.694.766.766 0 00-.67.365c-.37.359-.73.718-1.1 1.077a1.448 1.448 0 01-.45.42 2.455 2.455 0 00-.41-.109 4.645 4.645 0 01-.69-.4 13.276 13.276 0 01-2.9-2.775 3.847 3.847 0 01-1.06-1.807 5.564 5.564 0 00.68-.675c.35-.35.71-.684 1.04-1.059h.03a.665.665 0 00.11-.511.833.833 0 01-.11-.164 5.094 5.094 0 00-.49-.493c-.49-.474-.97-.95-1.46-1.424a1.486 1.486 0 00-1.11-.725z" transform="translate(-1344.34 -36.219)" fill="#737373" fill-rule="evenodd" filter="url(#filter)"/></svg>